<svg width="14" height="16" viewBox="0 0 14 16" fill="none" xmlns="http://www.w3.org/2000/svg">
<g clip-path="url(#clip0_2_1126)">
<path d="M12.6388 8.36673C12.7995 8.17575 12.6388 7.61499 12.6388 7.36673C12.6388 7.11846 12.7995 7.5577 12.6388 7.36673L7.63881 2.36673C7.46024 2.19485 7.87095 2.36673 7.63881 2.36673C7.40667 2.36673 6.81738 2.19485 6.63881 2.36673C6.4781 2.5577 6.63881 3.11846 6.63881 3.36673C6.63881 3.61499 6.4781 4.17575 6.63881 4.36673L9.63881 7.36673H1.63881C1.38881 7.36673 0.799526 7.19485 0.638811 7.36673C0.478097 7.5386 0.638811 7.09937 0.638811 7.36673C0.638811 7.63409 0.478097 8.19485 0.638811 8.36673C0.799526 8.5386 1.38881 8.36673 1.63881 8.36673H9.63881L6.63881 11.3667C6.4781 11.5577 6.63881 12.1185 6.63881 12.3667C6.63881 12.615 6.4781 13.1758 6.63881 13.3667C6.81738 13.5386 7.40667 13.3667 7.63881 13.3667C7.46024 13.5386 7.87095 13.3667 7.63881 13.3667L12.6388 8.36673Z" fill="white"/>
</g>
<defs>
<clipPath id="clip0_2_1126">
<rect width="13" height="15" fill="white" transform="matrix(1 0 0 -1 0.638916 15.3667)"/>
</clipPath>
</defs>
</svg>
